<svg height="420pt" viewBox="0 -3 420.47968 420" width="420pt" xmlns="http://www.w3.org/2000/svg"><path d="m316.117188 201.625c0 84.832031-68.769532 153.601562-153.601563 153.601562-84.828125 0-153.597656-68.769531-153.597656-153.601562 0-84.828125 68.769531-153.597656 153.597656-153.597656 84.832031 0 153.601563 68.769531 153.601563 153.597656zm0 0" fill="#c1dbdc"/><path d="m44.523438 39.726562c-1.746094 0-3.492188-.667968-4.828126-2-2.664062-2.664062-2.664062-6.988281 0-9.652343l12.457032-12.453125c2.664062-2.667969 6.984375-2.667969 9.652344 0 2.664062 2.664062 2.664062 6.984375 0 9.652344l-12.453126 12.453124c-1.335937 1.332032-3.082031 2-4.828124 2zm0 0" fill="#4c241d"/><path d="m147.15625 212.347656 26.4375 23.261719s112.539062-119.210937 240.058594-16.113281c0 0-83.65625-173.621094-266.496094-7.148438zm0 0" fill="#f53e28"/><g fill="#4c241d"><path d="m173.589844 242.433594c-1.601563 0-3.214844-.558594-4.507813-1.699219l-26.433593-23.261719c-1.460938-1.285156-2.300782-3.125-2.316407-5.066406-.019531-1.949219.792969-3.800781 2.230469-5.105469 63.539062-57.847656 122.667969-81.949219 175.738281-71.667969 68.183594 13.226563 100.171875 78.140626 101.5 80.898438 1.386719 2.875.59375 6.328125-1.90625 8.316406-2.507812 1.976563-6.046875 1.957032-8.535156-.046875-120.992187-97.8125-226.375 10.820313-230.804687 15.5-1.339844 1.414063-3.148438 2.132813-4.964844 2.132813zm-16.152344-30.132813 15.957031 14.039063c21.222657-19.457032 110.542969-91.445313 214.027344-33.046875-15.199219-17.660157-39.082031-37.964844-71.84375-44.277344-47.050781-9.09375-100.226563 12.21875-158.140625 63.285156zm0 0"/><path d="m15.472656 68.78125c-1.746094 0-3.496094-.667969-4.828125-2-2.667969-2.667969-2.667969-6.988281 0-9.65625l12.453125-12.453125c2.667969-2.664063 6.988282-2.664063 9.652344 0 2.667969 2.667969 2.667969 6.988281 0 9.652344l-12.453125 12.457031c-1.332031 1.332031-3.078125 2-4.824219 2zm0 0"/><path d="m27.925781 39.726562c-1.746093 0-3.496093-.667968-4.828125-2l-12.453125-12.453124c-2.667969-2.667969-2.667969-6.988282 0-9.652344 2.664063-2.667969 6.988281-2.667969 9.652344 0l12.453125 12.453125c2.667969 2.664062 2.667969 6.988281 0 9.652343-1.332031 1.332032-3.078125 2-4.824219 2zm0 0"/><path d="m56.976562 68.78125c-1.746093 0-3.492187-.667969-4.824218-2l-12.457032-12.457031c-2.664062-2.664063-2.664062-6.984375 0-9.652344 2.667969-2.664063 6.988282-2.664063 9.65625 0l12.453126 12.453125c2.664062 2.667969 2.664062 6.988281 0 9.65625-1.335938 1.332031-3.082032 2-4.828126 2zm0 0"/><path d="m41.867188 414.425781c-3.417969 0-6.800782-.839843-9.902344-2.492187-4.964844-2.652344-8.589844-7.085938-10.21875-12.472656-1.632813-5.375-1.070313-11.074219 1.582031-16.035157 2.652344-4.960937 7.074219-8.585937 12.460937-10.21875 11.105469-3.367187 22.894532 2.933594 26.261719 14.046875 1.628907 5.378906 1.070313 11.078125-1.585937 16.039063-2.652344 4.957031-7.074219 8.585937-12.460938 10.21875-2.019531.617187-4.082031.914062-6.136718.914062zm.023437-28.472656c-.710937 0-1.429687.105469-2.144531.320313-3.90625 1.1875-6.121094 5.328124-4.9375 9.234374.574218 1.890626 1.851562 3.453126 3.59375 4.386719 1.742187.925781 3.753906 1.117188 5.640625.550781 1.886719-.574218 3.445312-1.84375 4.378906-3.589843.929687-1.746094 1.128906-3.746094.554687-5.640625-.964843-3.195313-3.910156-5.261719-7.085937-5.261719zm0 0"/><path d="m383.0625 42.355469c-11.609375 0-21.054688-9.449219-21.054688-21.054688 0-11.613281 9.445313-21.0625 21.054688-21.0625s21.058594 9.449219 21.058594 21.0625c0 11.605469-9.449219 21.054688-21.058594 21.054688zm0-28.460938c-4.082031 0-7.402344 3.316407-7.402344 7.40625 0 4.078125 3.320313 7.398438 7.402344 7.398438 4.085938 0 7.402344-3.320313 7.402344-7.398438 0-4.085937-3.316406-7.40625-7.402344-7.40625zm0 0"/><path d="m303.519531 28.125c0 5.082031-4.121093 9.203125-9.203125 9.203125-5.082031 0-9.203125-4.121094-9.203125-9.203125s4.121094-9.203125 9.203125-9.203125c5.082032 0 9.203125 4.121094 9.203125 9.203125zm0 0"/><path d="m386.136719 394.347656c-1.746094 0-3.492188-.667968-4.828125-2-2.664063-2.667968-2.664063-6.988281 0-9.652344l20.128906-20.121093c2.664062-2.667969 6.988281-2.667969 9.652344 0 2.664062 2.664062 2.664062 6.988281 0 9.652343l-20.125 20.121094c-1.335938 1.332032-3.082032 2-4.828125 2zm0 0"/><path d="m406.261719 394.347656c-1.746094 0-3.492188-.667968-4.824219-2l-20.128906-20.121094c-2.664063-2.664062-2.664063-6.988281 0-9.652343 2.664062-2.667969 6.988281-2.667969 9.65625 0l20.125 20.121093c2.664062 2.664063 2.664062 6.984376 0 9.652344-1.328125 1.332032-3.078125 2-4.828125 2zm0 0"/></g><path d="m254.675781 112.878906c0 28.277344-22.921875 51.199219-51.199219 51.199219-28.277343 0-51.199218-22.921875-51.199218-51.199219s22.921875-51.199218 51.199218-51.199218c28.277344 0 51.199219 22.921874 51.199219 51.199218zm0 0" fill="#e66353"/><path d="m203.476562 170.90625c-31.996093 0-58.027343-26.035156-58.027343-58.027344 0-31.992187 26.03125-58.027344 58.027343-58.027344 31.996094 0 58.027344 26.035157 58.027344 58.027344 0 31.992188-26.03125 58.027344-58.027344 58.027344zm0-102.398438c-24.464843 0-44.371093 19.90625-44.371093 44.371094 0 24.46875 19.90625 44.375 44.371093 44.375 24.46875 0 44.375-19.90625 44.375-44.375 0-24.464844-19.90625-44.371094-44.375-44.371094zm0 0" fill="#4c241d"/><path d="m6.828125 163.585938s76.039063-89.53125 172.753906-37.691407v32.980469s-94.066406-29.914062-172.753906 4.710938zm0 0" fill="#f53e28"/><path d="m6.828125 170.414062c-2.105469 0-4.15625-.972656-5.476563-2.746093-1.898437-2.546875-1.789062-6.074219.269532-8.5.800781-.941407 80.773437-93.085938 181.1875-39.292969 2.21875 1.195312 3.601562 3.507812 3.601562 6.019531v32.980469c0 2.171875-1.039062 4.21875-2.796875 5.507812-1.75 1.285157-4.011719 1.660157-6.097656 1-.914063-.289062-92.605469-28.6875-167.941406 4.453126-.886719.390624-1.820313.578124-2.746094.578124zm87.554687-30.472656c34.765626 0 64.210938 6.28125 78.375 9.925782v-19.820313c-58.242187-29.152344-108.695312-4.347656-136.863281 16.566406 20-4.890625 39.996094-6.671875 58.488281-6.671875zm0 0" fill="#4c241d"/><path d="m369.601562 58.269531s-36.003906 111.808594-145.195312 100.914063l-12.617188-30.472656s98.359376-8.347657 157.8125-70.441407zm0 0" fill="#f53e28"/><path d="m239.082031 166.753906c-4.957031 0-10.070312-.253906-15.351562-.78125-2.503907-.25-4.667969-1.859375-5.628907-4.179687l-12.617187-30.472657c-.835937-2.011718-.660156-4.300781.472656-6.15625 1.132813-1.863281 3.082031-3.066406 5.25-3.253906.960938-.085937 96.546875-8.921875 153.464844-68.359375 2.199219-2.296875 5.695313-2.769531 8.425781-1.148437 2.734375 1.632812 3.976563 4.933594 3.003906 7.960937-.359374 1.109375-35.492187 106.390625-137.019531 106.390625zm-9.957031-14.019531c41.039062 3.039063 75.761719-11.820313 103.339844-44.007813 6.902344-8.058593 12.511718-16.300781 16.953125-23.792968-47.851563 35.175781-105.664063 46.339844-127.875 49.480468zm0 0" fill="#4c241d"/><path d="m347.675781 236.191406c9.496094 15.4375 14.804688 32.6875 14.804688 50.882813 0 65.988281-69.804688 119.480469-155.914063 119.480469-86.113281 0-155.917968-53.492188-155.917968-119.480469 0-65.984375 69.804687-119.480469 155.917968-119.480469 39.457032 0 75.496094 11.234375 102.960938 29.757812" fill="#9dc1e4"/><path d="m206.566406 413.378906c-89.738281 0-162.742187-56.660156-162.742187-126.304687 0-69.648438 73.003906-126.308594 162.742187-126.308594 39.292969 0 77.214844 10.988281 106.777344 30.925781 3.125 2.105469 3.949219 6.355469 1.839844 9.480469-2.105469 3.128906-6.347656 3.933594-9.476563 1.839844-27.332031-18.441407-62.542969-28.59375-99.140625-28.59375-82.210937 0-149.089844 50.535156-149.089844 112.65625 0 62.121093 66.878907 112.652343 149.089844 112.652343 82.203125 0 149.085938-50.53125 149.085938-112.652343 0-16.515625-4.640625-32.429688-13.792969-47.300781-1.976563-3.214844-.972656-7.421876 2.238281-9.394532 3.214844-1.980468 7.414063-.980468 9.390625 2.234375 10.496094 17.066407 15.816407 35.386719 15.816407 54.460938.003906 69.644531-73 126.304687-162.738282 126.304687zm0 0" fill="#4c241d"/><path d="m206.890625 129.945312v35.210938s-163.839844 5.75-170.667969 169.589844c0 0-75.09375-177.492188 170.667969-204.800782zm0 0" fill="#f53e28"/><path d="m36.21875 341.574219c-2.699219 0-5.199219-1.605469-6.28125-4.167969-1.195312-2.820312-28.800781-69.714844 6.304688-129.640625 27.332031-46.652344 84.492187-75.113281 169.894531-84.605469 1.90625-.21875 3.855469.398438 5.304687 1.699219 1.449219 1.292969 2.273438 3.148437 2.273438 5.085937v35.214844c0 3.671875-2.910156 6.6875-6.578125 6.820313-6.433594.238281-157.617188 7.59375-164.09375 163.054687-.132813 3.183594-2.457031 5.859375-5.601563 6.433594-.410156.070312-.816406.105469-1.222656.105469zm163.84375-203.941407c-76.667969 9.761719-127.796875 35.65625-152.039062 77.035157-16.902344 28.859375-17.414063 60.171875-14.171876 83.207031 24.449219-116.402344 137.574219-135.90625 166.210938-138.988281zm0 0" fill="#4c241d"/><path d="m200.0625 140.1875c0 28.277344-22.921875 51.199219-51.199219 51.199219-28.277343 0-51.199219-22.921875-51.199219-51.199219s22.921876-51.199219 51.199219-51.199219c28.277344 0 51.199219 22.921875 51.199219 51.199219zm0 0" fill="#e66353"/><path d="m148.863281 198.214844c-31.996093 0-58.027343-26.035156-58.027343-58.027344 0-31.996094 26.03125-58.027344 58.027343-58.027344 31.996094 0 58.027344 26.03125 58.027344 58.027344 0 31.992188-26.03125 58.027344-58.027344 58.027344zm0-102.402344c-24.464843 0-44.371093 19.90625-44.371093 44.375 0 24.464844 19.90625 44.371094 44.371093 44.371094 24.46875 0 44.375-19.90625 44.375-44.371094 0-24.46875-19.90625-44.375-44.375-44.375zm0 0" fill="#4c241d"/><path d="m316.117188 140.1875c0 28.277344-22.921876 51.199219-51.199219 51.199219-28.277344 0-51.199219-22.921875-51.199219-51.199219s22.921875-51.199219 51.199219-51.199219c28.277343 0 51.199219 22.921875 51.199219 51.199219zm0 0" fill="#e66353"/><path d="m264.917969 198.214844c-31.996094 0-58.027344-26.035156-58.027344-58.027344 0-31.996094 26.03125-58.027344 58.027344-58.027344 31.996093 0 58.027343 26.03125 58.027343 58.027344 0 31.992188-26.03125 58.027344-58.027343 58.027344zm0-102.402344c-24.46875 0-44.375 19.90625-44.375 44.375 0 24.464844 19.90625 44.371094 44.375 44.371094 24.464843 0 44.371093-19.90625 44.371093-44.371094 0-24.46875-19.90625-44.375-44.371093-44.375zm0 0" fill="#4c241d"/><path d="m336.382812 227.699219c-1.90625 0-3.800781-.792969-5.148437-2.34375-2.761719-3.167969-5.78125-6.28125-8.976563-9.253907-2.761718-2.574218-2.917968-6.894531-.347656-9.652343 2.570313-2.746094 6.894532-2.902344 9.644532-.347657 3.542968 3.300782 6.902343 6.761719 9.972656 10.292969 2.476562 2.839844 2.179687 7.152344-.664063 9.628907-1.292969 1.121093-2.890625 1.675781-4.480469 1.675781zm0 0" fill="#4c241d"/><path d="m254.675781 153.839844c0 28.277344-22.921875 51.199218-51.199219 51.199218-28.277343 0-51.199218-22.921874-51.199218-51.199218s22.921875-51.199219 51.199218-51.199219c28.277344 0 51.199219 22.921875 51.199219 51.199219zm0 0" fill="#e66353"/><path d="m203.476562 211.867188c-31.996093 0-58.027343-26.035157-58.027343-58.027344 0-31.992188 26.03125-58.027344 58.027343-58.027344 31.996094 0 58.027344 26.035156 58.027344 58.027344 0 31.992187-26.03125 58.027344-58.027344 58.027344zm0-102.402344c-24.464843 0-44.371093 19.910156-44.371093 44.375s19.90625 44.375 44.371093 44.375c24.46875 0 44.375-19.910156 44.375-44.375s-19.90625-44.375-44.375-44.375zm0 0" fill="#4c241d"/><path d="m134.085938 284.398438c-7.683594 0-15.339844-1.660157-22.53125-4.957032-3.425782-1.574218-4.929688-5.628906-3.355469-9.054687 1.570312-3.425781 5.640625-4.914063 9.046875-3.359375 9.824218 4.5 20.804687 4.925781 30.917968 1.164062 10.125-3.75 18.179688-11.222656 22.6875-21.039062 1.574219-3.425782 5.621094-4.914063 9.050782-3.359375 3.425781 1.574219 4.929687 5.628906 3.355468 9.054687-6.023437 13.132813-16.804687 23.125-30.34375 28.144532-6.128906 2.273437-12.484374 3.40625-18.828124 3.40625zm0 0" fill="#4c241d"/><path d="m280.222656 284.398438c-6.34375 0-12.699218-1.132813-18.824218-3.40625-13.542969-5.019532-24.324219-15.011719-30.347657-28.144532-1.574219-3.425781-.070312-7.480468 3.359375-9.054687 3.417969-1.554688 7.480469-.074219 9.050782 3.359375 4.503906 9.816406 12.5625 17.289062 22.683593 21.039062 10.117188 3.761719 21.097657 3.347656 30.917969-1.164062 3.40625-1.566406 7.472656-.074219 9.050781 3.359375 1.574219 3.425781.070313 7.480469-3.359375 9.054687-7.191406 3.300782-14.847656 4.957032-22.53125 4.957032zm0 0" fill="#4c241d"/><path d="m264.917969 334.746094h-122.878907c-5.65625 0-10.242187-4.582032-10.242187-10.238282s4.585937-10.242187 10.242187-10.242187h122.878907c5.65625 0 10.238281 4.585937 10.238281 10.242187s-4.582031 10.238282-10.238281 10.238282zm0 0" fill="#bd53b5"/><path d="m264.917969 341.574219h-122.878907c-9.414062 0-17.070312-7.652344-17.070312-17.066407 0-9.414062 7.65625-17.066406 17.070312-17.066406h122.878907c9.410156 0 17.066406 7.652344 17.066406 17.066406 0 9.414063-7.65625 17.066407-17.066406 17.066407zm-122.878907-20.480469c-1.886718 0-3.414062 1.53125-3.414062 3.414062 0 1.878907 1.527344 3.410157 3.414062 3.410157h122.878907c1.882812 0 3.414062-1.53125 3.414062-3.410157 0-1.882812-1.53125-3.414062-3.414062-3.414062zm0 0" fill="#4c241d"/><path d="m258.089844 314.265625c-5.65625 0-14.824219 0-20.480469 0s-10.238281 4.585937-10.238281 10.242187v40.957032c0 5.65625 4.582031 10.242187 10.238281 10.242187s10.242187-4.585937 10.242187-10.242187v-27.304688c0 5.652344 4.582032 10.238282 10.238282 10.238282s10.242187-4.585938 10.242187-10.238282v-13.652344c0-5.65625-4.585937-10.242187-10.242187-10.242187zm0 0" fill="#fff"/><path d="m237.609375 382.53125c-9.410156 0-17.066406-7.652344-17.066406-17.066406v-40.957032c0-9.414062 7.65625-17.066406 17.066406-17.066406h20.480469c9.410156 0 17.066406 7.652344 17.066406 17.066406v13.652344c0 9.414063-7.65625 17.066406-17.066406 17.066406-1.171875 0-2.308594-.121093-3.414063-.339843v10.578125c0 9.414062-7.65625 17.066406-17.066406 17.066406zm0-61.4375c-1.882813 0-3.410156 1.53125-3.410156 3.414062v40.957032c0 1.882812 1.527343 3.414062 3.410156 3.414062 1.886719 0 3.414063-1.53125 3.414063-3.414062v-27.304688c0-3.773437 3.058593-6.828125 6.828124-6.828125 3.769532 0 6.824219 3.054688 6.824219 6.828125 0 1.878906 1.53125 3.414063 3.414063 3.414063 1.886718 0 3.414062-1.535157 3.414062-3.414063v-13.652344c0-1.882812-1.527344-3.414062-3.414062-3.414062zm0 0" fill="#4c241d"/></svg>