<?xml version="1.0" encoding="utf-8"?>
<!-- Generator: Adobe Illustrator 24.3.0, SVG Export Plug-In . SVG Version: 6.00 Build 0)  -->
<svg version="1.1" id="Capa_1" xmlns="http://www.w3.org/2000/svg" xmlns:xlink="http://www.w3.org/1999/xlink" x="0px" y="0px"
	 viewBox="0 0 25.6 25.7" style="enable-background:new 0 0 25.6 25.7;" xml:space="preserve">
<style type="text/css">
	.st0{fill:#5B4C9A;stroke:#5B4C9A;stroke-width:2;stroke-miterlimit:10;}
</style>
<path class="st0" d="M24.4,22.4l-4.5-4.5c1.4-1.8,2.2-4.1,2.2-6.4c0-2.1-0.7-4.1-1.7-5.8c-1.2-1.7-2.8-3-4.7-3.8s-4.1-1.2-6.2-0.7
	C7.4,1.6,5.6,2.7,4.1,4.1S1.7,7.4,1.3,9.4c-0.5,2.1-0.3,4.2,0.5,6.2s2.1,3.6,3.8,4.7c1.8,1.1,3.8,1.7,5.9,1.7c2.4,0,4.6-0.8,6.4-2.2
	l4.5,4.5c0.1,0.1,0.3,0.3,0.4,0.3c0.1,0.1,0.4,0.1,0.5,0.1s0.4,0,0.5-0.1s0.3-0.1,0.4-0.3c0.1-0.1,0.3-0.3,0.3-0.4
	c0.1-0.1,0.1-0.4,0.1-0.5s0-0.4-0.1-0.5C24.6,22.7,24.5,22.5,24.4,22.4z M3.7,11.5c0-1.6,0.5-3,1.3-4.3c0.9-1.4,2.1-2.4,3.6-2.9
	c1.4-0.7,3-0.8,4.6-0.5s2.9,1.1,4.1,2.1c1.1,1.1,1.8,2.5,2.1,4.1c0.3,1.6,0.1,3.2-0.4,4.6c-0.7,1.4-1.6,2.6-2.9,3.6
	c-1.3,0.9-2.8,1.3-4.3,1.3c-2.1,0-4.1-0.8-5.5-2.4C4.5,15.6,3.7,13.6,3.7,11.5z"/>
</svg>
